<svg width="33" height="33" viewBox="0 0 33 33" fill="none" xmlns="http://www.w3.org/2000/svg">
<path d="M7.74935 12.1251V1.91675H25.2493V12.1251M7.74935 25.2501H4.83268C4.05913 25.2501 3.31727 24.9428 2.77029 24.3958C2.22331 23.8488 1.91602 23.107 1.91602 22.3334V15.0417C1.91602 14.2682 2.22331 13.5263 2.77029 12.9794C3.31727 12.4324 4.05913 12.1251 4.83268 12.1251H28.166C28.9396 12.1251 29.6814 12.4324 30.2284 12.9794C30.7754 13.5263 31.0827 14.2682 31.0827 15.0417V22.3334C31.0827 23.107 30.7754 23.8488 30.2284 24.3958C29.6814 24.9428 28.9396 25.2501 28.166 25.2501H25.2493M7.74935 19.4167H25.2493V31.0834H7.74935V19.4167Z" stroke="#FF642D" stroke-width="3" stroke-linecap="round" stroke-linejoin="round"/>
</svg>
