<svg width="31" height="33" viewBox="0 0 31 33" fill="none" xmlns="http://www.w3.org/2000/svg">
<path d="M10.5271 18.7022L20.4875 24.5063M20.4729 8.49383L10.5271 14.298M28.625 6.29175C28.625 8.70799 26.6662 10.6667 24.25 10.6667C21.8338 10.6667 19.875 8.70799 19.875 6.29175C19.875 3.8755 21.8338 1.91675 24.25 1.91675C26.6662 1.91675 28.625 3.8755 28.625 6.29175ZM11.125 16.5001C11.125 18.9163 9.16625 20.8751 6.75 20.8751C4.33375 20.8751 2.375 18.9163 2.375 16.5001C2.375 14.0838 4.33375 12.1251 6.75 12.1251C9.16625 12.1251 11.125 14.0838 11.125 16.5001ZM28.625 26.7084C28.625 29.1247 26.6662 31.0834 24.25 31.0834C21.8338 31.0834 19.875 29.1247 19.875 26.7084C19.875 24.2922 21.8338 22.3334 24.25 22.3334C26.6662 22.3334 28.625 24.2922 28.625 26.7084Z" stroke="#FF642D" stroke-width="3" stroke-linecap="round" stroke-linejoin="round"/>
</svg>
